<?xml version="1.0" encoding="UTF-8"?>
<svg id="Layer_2" data-name="Layer 2" xmlns="http://www.w3.org/2000/svg" viewBox="0 0 1403.31 372.34">
  <defs>
    <style>
      .cls-1 {
        letter-spacing: -.01em;
      }

      .cls-2, .cls-3 {
        fill: silver;
      }

      .cls-4 {
        letter-spacing: 0em;
      }

      .cls-5 {
        letter-spacing: 0em;
      }

      .cls-6 {
        fill: #2a286b;
      }

      .cls-7 {
        fill: #059386;
      }

      .cls-3 {
        font-size: 217.56px;
        stroke: #dbdbdd;
      }

      .cls-3, .cls-8 {
        stroke-miterlimit: 10;
      }

      .cls-3, .cls-9 {
        font-family: AgencyFB-Bold, 'Agency FB';
        font-weight: 700;
      }

      .cls-8 {
        fill: none;
        stroke: silver;
        stroke-width: 4px;
      }

      .cls-9 {
        fill: #1f67a9;
        font-size: 267.86px;
      }

      .cls-10 {
        fill: #b5d5cd;
      }

      .cls-11 {
        fill: #13202e;
        font-family: Calibri, Calibri;
        font-size: 119.05px;
      }

      .cls-12 {
        fill: #3953a4;
      }
    </style>
  </defs>
  <g id="Logo">
    <g>
      <path class="cls-12" d="m425.35,186.17c0,38.44-11.65,74.14-31.64,103.75-31.01,14-65.41,21.76-101.65,21.76-108.3,0-200.37-69.47-234.05-166.29C76.6,62.33,150.77.25,239.44.25c102.69,0,185.92,83.25,185.92,185.92Z"/>
      <path class="cls-6" d="m292.06,311.68c36.24,0,70.63-7.76,101.65-21.76-33.36,49.58-90.02,82.17-154.28,82.17-102.69,0-185.92-83.23-185.92-185.92,0-14.02,1.55-27.65,4.5-40.78,33.67,96.81,125.75,166.29,234.05,166.29Z"/>
    </g>
    <g>
      <circle class="cls-8" cx="198.45" cy="93.47" r="13.15"/>
      <circle class="cls-8" cx="246.72" cy="129.67" r="13.15"/>
      <circle class="cls-8" cx="279.33" cy="182.41" r="13.15"/>
      <path class="cls-8" d="m209.43,38.24c0,2.52-.71,4.88-1.94,6.88-2.31,3.76-6.47,6.27-11.21,6.27-7.26,0-13.15-5.89-13.15-13.15s5.89-13.15,13.15-13.15,13.15,5.89,13.15,13.15Z"/>
      <path class="cls-8" d="m211.29,96.29c4.38.22,8.75.45,13.13.67,7.43,6.52,14.86,13.04,22.29,19.56"/>
      <path class="cls-2" d="m259.58,130.38h33.65l.57.49,67.38,58.92-1.42-.49,40.67-2.1-1.9,2v-32.57l.69,1.51-33.54-29.06-.67-.58-.02-.89-.84-36.06.72,1.49-59.12-49.48-.66-.55-.05-.86-.84-13.42.63,1.33-23.48-23.73c-.3-.3-.3-.79,0-1.09.29-.29.75-.29,1.05-.03l25.16,21.94.58.5.05.83.84,13.42-.71-1.41,59.12,49.48.69.58.02.91.84,36.06-.69-1.46,33.54,29.06.69.6v35.39l-1.9.1-40.67,2.1-.81.04-.61-.53-67.38-58.92,1.32.49h-32.9c-2.57-.05-2.7-3.92,0-4h0Z"/>
      <path class="cls-8" d="m207.49,45.12c25.21,21.33,50.42,42.66,75.64,64,8.25-.14,16.49-.28,24.74-.42,5.59,5.59,11.18,11.18,16.77,16.77.27,11.91.54,23.82.81,35.74"/>
      <polygon class="cls-2" points="293.5 183.31 336.38 218.26 335.12 217.81 422.44 218.94 422.44 220.68 335.12 221.81 334.41 221.82 333.85 221.36 290.98 186.41 293.5 183.31 293.5 183.31"/>
      <path class="cls-2" d="m212.99,2.12l42.38,14.86-1.04-.1c.51-.09,11.49-1.91,11.59-1.93,0,0,.73.84.73.84l9.18,10.49.49.57v16.49l-.71-1.53,74.31,62.94.71.6v37.48l-.77-1.58,32.35,25.08-2.45,3.16-32.35-25.08-.77-.6v-37.53l.71,1.53-74.31-62.94-.71-.6v-16.66l.49,1.32-9.18-10.49,1.83.66-10.49,1.75-.56.09-.48-.2L212.45,3.54l.54-1.42h0Z"/>
    </g>
    <text class="cls-3" transform="translate(104.63 318.55) scale(.76 1)"><tspan x="0" y="0">TS</tspan></text>
    <g>
      <path class="cls-7" d="m106.8,269.65c0,7.28-1.47,14.21-4.11,20.52-10.47,10.95-25.21,17.77-41.58,17.77-31.55,0-57.15-25.36-57.56-56.78,7.49-20.31,27.05-34.79,49.97-34.79,29.42,0,53.28,23.86,53.28,53.28Zm-15.06-24.27c2.83-6.91-7.32-16.46-22.67-21.35-15.37-4.88-30.12-3.24-32.95,3.65-2.85,6.91,7.3,16.46,22.67,21.35,15.35,4.88,30.12,3.24,32.95-3.65Z"/>
      <path class="cls-10" d="m69.06,224.04c15.35,4.88,25.5,14.43,22.67,21.35-2.83,6.89-17.6,8.53-32.95,3.65-15.37-4.88-25.53-14.43-22.67-21.35,2.83-6.89,17.57-8.53,32.95-3.65Z"/>
      <path class="cls-6" d="m61.11,307.94c16.37,0,31.11-6.82,41.58-17.77-8.05,19.24-27.03,32.73-49.17,32.73-29.42,0-53.28-23.84-53.28-53.25,0-6.5,1.16-12.72,3.31-18.49.41,31.43,26.01,56.78,57.56,56.78Z"/>
    </g>
    <g>
      <path class="cls-6" d="m480.6,77.43c0,5.1-1.17,9.94-3.22,14.27-5.32,11.26-16.81,19.06-30.11,19.06-18.44,0-33.36-14.93-33.36-33.33,0-3.85.64-7.54,1.85-10.99,4.53-13.02,16.93-22.37,31.51-22.37,18.4,0,33.33,14.92,33.33,33.36Z"/>
      <path class="cls-12" d="m480.6,77.43c0,5.11-1.16,9.95-3.22,14.27-6.52,5.32-14.83,8.49-23.89,8.49-19.52,0-35.62-14.76-37.73-33.75,4.53-13.02,16.93-22.37,31.5-22.37,18.41,0,33.33,14.92,33.33,33.36Z"/>
      <path class="cls-2" d="m455.85,48.44c8.46,2.08,14.43,7.32,13.32,11.7-1.12,4.39-8.87,6.25-17.35,4.17-8.46-2.08-14.43-7.32-13.31-11.7,1.1-4.39,8.87-6.25,17.34-4.17Z"/>
    </g>
    <g>
      <path class="cls-6" d="m417.26,26.87c0,2.89-.69,5.59-1.9,7.96-2.91,5.72-8.85,9.64-15.72,9.64-9.71,0-17.6-7.89-17.6-17.61,0-3.45.99-6.69,2.73-9.43,3.12-4.92,8.61-8.19,14.86-8.19,9.75,0,17.62,7.89,17.62,17.62Z"/>
      <path class="cls-7" d="m417.26,26.87c0,2.89-.69,5.59-1.9,7.96-3.27,2.87-7.57,4.62-12.26,4.62-10.3,0-18.63-8.35-18.63-18.65,0-1.13.09-2.27.31-3.36,3.12-4.92,8.61-8.19,14.86-8.19,9.75,0,17.62,7.89,17.62,17.62Z"/>
      <path class="cls-2" d="m404.88,12.76c3.82,1.28,6.38,3.82,5.75,5.68-.6,1.84-4.21,2.3-8,1.02-3.82-1.28-6.41-3.82-5.78-5.68.63-1.84,4.23-2.3,8.03-1.02Z"/>
    </g>
    <g>
      <text class="cls-9" transform="translate(520.84 236.5) scale(.76 1)"><tspan x="0" y="0">TECHSPHERE</tspan></text>
      <text class="cls-11" transform="translate(749.15 334.89) scale(.76 1)"><tspan x="0" y="0">Inn</tspan><tspan class="cls-5" x="155.09" y="0">o</tspan><tspan class="cls-1" x="217.34" y="0">v</tspan><tspan class="cls-4" x="269.37" y="0">a</tspan><tspan x="325.29" y="0">tions</tspan></text>
    </g>
  </g>
</svg>