<?xml version="1.0" encoding="UTF-8"?>
<svg id="Layer_2" data-name="Layer 2" xmlns="http://www.w3.org/2000/svg" viewBox="0 0 379.57 454.42">
  <defs>
    <style>
      .cls-1, .cls-2 {
        fill: silver;
      }

      .cls-2 {
        font-size: 169.64px;
        stroke: #dbdbdd;
      }

      .cls-2, .cls-3 {
        font-family: AgencyFB-Bold, 'Agency FB';
        font-weight: 700;
      }

      .cls-2, .cls-4 {
        stroke-miterlimit: 10;
      }

      .cls-5 {
        letter-spacing: 0em;
      }

      .cls-6 {
        fill: #13202e;
        font-family: Calibri, Calibri;
        font-size: 51.21px;
      }

      .cls-3 {
        fill: #1f67a9;
        font-size: 115.21px;
      }

      .cls-7 {
        fill: #2a286b;
      }

      .cls-8 {
        letter-spacing: 0em;
      }

      .cls-9 {
        fill: #059386;
      }

      .cls-10 {
        letter-spacing: -.01em;
      }

      .cls-4 {
        fill: none;
        stroke: silver;
        stroke-width: 4px;
      }

      .cls-11 {
        fill: #b5d5cd;
      }

      .cls-12 {
        fill: #3953a4;
      }
    </style>
  </defs>
  <g id="Logo">
    <g>
      <g>
        <g>
          <path class="cls-12" d="m333.41,145.22c0,29.97-9.09,57.81-24.67,80.9-24.18,10.91-51.01,16.96-79.26,16.96-84.44,0-156.24-54.17-182.5-129.66C61.47,48.66,119.3.25,188.44.25c80.07,0,144.97,64.92,144.97,144.97Z"/>
          <path class="cls-7" d="m229.48,243.09c28.26,0,55.08-6.05,79.26-16.96-26.01,38.66-70.19,64.07-120.3,64.07-80.07,0-144.97-64.9-144.97-144.97,0-10.93,1.21-21.56,3.51-31.8,26.26,75.49,98.05,129.66,182.5,129.66Z"/>
        </g>
        <g>
          <circle class="cls-4" cx="156.48" cy="72.93" r="10.25"/>
          <circle class="cls-4" cx="194.11" cy="101.16" r="10.25"/>
          <circle class="cls-4" cx="219.54" cy="142.29" r="10.25"/>
          <path class="cls-4" d="m165.03,29.87c0,1.97-.55,3.81-1.52,5.37-1.8,2.93-5.04,4.89-8.74,4.89-5.66,0-10.25-4.59-10.25-10.25s4.59-10.25,10.25-10.25,10.25,4.59,10.25,10.25Z"/>
          <path class="cls-4" d="m166.49,75.14c3.41.17,6.82.35,10.24.52,5.79,5.08,11.59,10.17,17.38,15.25"/>
          <path class="cls-1" d="m204.14,101.28h26.4l.57.49,52.54,45.94-1.42-.49,31.71-1.63-1.9,2v-25.4l.69,1.51-26.16-22.66-.67-.58-.02-.89-.65-28.12.72,1.49-46.1-38.58-.66-.55-.05-.86-.65-10.46.63,1.33-18.12-18.7c-.3-.31-.29-.79.02-1.09.29-.28.74-.29,1.04-.03l19.8,16.91.57.49.05.84.65,10.46-.71-1.41,46.1,38.58.69.58.02.91.65,28.12-.69-1.46,26.16,22.66.69.6v28.21l-1.9.1-31.71,1.63-.81.04-.61-.53-52.54-45.94,1.32.49h-25.65c-2.59-.06-2.68-3.92,0-4h0Z"/>
          <path class="cls-4" d="m163.52,35.24c19.66,16.63,39.32,33.27,58.98,49.9,6.43-.11,12.86-.22,19.29-.33,4.36,4.36,8.72,8.72,13.08,13.08.21,9.29.42,18.58.63,27.86"/>
          <polygon class="cls-1" points="230.87 142.65 264.3 169.9 263.04 169.45 331.13 170.58 331.13 172.32 263.04 173.45 262.34 173.46 261.77 173 228.34 145.75 230.87 142.65 230.87 142.65"/>
          <path class="cls-1" d="m167.87,1.55l33.14,11.33-1.04-.1c.68-.09,8.94-1.51,9.28-1.55,0,0,.73.84.73.84l7.16,8.18.49.57v13.02l-.71-1.53,57.94,49.08.71.6v29.43l-.77-1.58,25.22,19.55-2.45,3.16-25.22-19.55-.77-.6v-29.48l.71,1.53-57.94-49.08-.71-.6v-13.2l.49,1.32-7.16-8.18,1.83.66-8.18,1.36-.57.1-.47-.2-32.26-13.64.54-1.42h0Z"/>
        </g>
        <text class="cls-2" transform="translate(83.32 248.45) scale(.76 1)"><tspan x="0" y="0">TS</tspan></text>
      </g>
      <g>
        <path class="cls-9" d="m85.01,210.32c0,5.67-1.15,11.08-3.2,16-8.16,8.54-19.66,13.85-32.42,13.85-24.6,0-44.56-19.77-44.88-44.28,5.84-15.83,21.09-27.12,38.96-27.12,22.94,0,41.54,18.6,41.54,41.54Zm-11.76-18.92c2.22-5.39-5.69-12.84-17.68-16.64-11.97-3.81-23.47-2.53-25.69,2.85-2.21,5.39,5.71,12.84,17.68,16.64,11.99,3.81,23.49,2.53,25.69-2.85Z"/>
        <path class="cls-11" d="m55.57,174.75c11.99,3.81,19.9,11.25,17.68,16.64-2.21,5.37-13.7,6.65-25.69,2.85-11.97-3.81-19.89-11.25-17.68-16.64,2.22-5.37,13.72-6.65,25.69-2.85Z"/>
        <path class="cls-7" d="m49.39,240.17c12.76,0,24.26-5.32,32.42-13.85-6.28,15-21.07,25.52-38.34,25.52-22.94,0-41.54-18.59-41.54-41.53,0-5.07.9-9.91,2.58-14.42.32,24.5,20.28,44.28,44.88,44.28Z"/>
      </g>
      <g>
        <path class="cls-7" d="m376.48,60.43c0,3.99-.9,7.75-2.51,11.13-4.14,8.78-13.11,14.86-23.48,14.86-14.38,0-26.01-11.63-26.01-25.99,0-3,.51-5.88,1.44-8.57,3.54-10.15,13.21-17.44,24.57-17.44,14.36,0,25.99,11.63,25.99,26.01Z"/>
        <path class="cls-12" d="m376.48,60.43c0,3.99-.9,7.76-2.51,11.13-5.09,4.15-11.56,6.62-18.63,6.62-15.22,0-27.78-11.51-29.42-26.32,3.54-10.15,13.2-17.44,24.57-17.44,14.36,0,25.99,11.63,25.99,26.01Z"/>
        <path class="cls-1" d="m357.18,37.83c6.6,1.63,11.26,5.71,10.39,9.13-.87,3.41-6.92,4.87-13.52,3.24-6.6-1.62-11.25-5.7-10.39-9.12.87-3.42,6.92-4.87,13.52-3.25Z"/>
      </g>
      <g>
        <path class="cls-7" d="m327.1,21.02c0,2.24-.55,4.35-1.49,6.2-2.26,4.46-6.9,7.52-12.25,7.52-7.58,0-13.73-6.15-13.73-13.72,0-2.7.78-5.23,2.13-7.36,2.44-3.84,6.71-6.39,11.6-6.39,7.59,0,13.74,6.15,13.74,13.75Z"/>
        <path class="cls-9" d="m327.1,21.02c0,2.24-.55,4.35-1.49,6.2-2.55,2.24-5.9,3.6-9.56,3.6-8.03,0-14.53-6.51-14.53-14.54,0-.88.08-1.77.24-2.62,2.44-3.84,6.71-6.39,11.6-6.39,7.59,0,13.74,6.15,13.74,13.75Z"/>
        <path class="cls-1" d="m317.44,10c2.96,1,4.98,2.98,4.49,4.43-.49,1.43-3.28,1.79-6.26.79-2.96-1-4.98-2.98-4.49-4.43.49-1.43,3.28-1.79,6.26-.79Z"/>
      </g>
    </g>
    <g>
      <text class="cls-3" transform="translate(0 396.1) scale(.76 1)"><tspan x="0" y="0">TECHSPHERE</tspan></text>
      <text class="cls-6" transform="translate(98.2 438.42) scale(.76 1)"><tspan x="0" y="0">Inn</tspan><tspan class="cls-8" x="66.71" y="0">o</tspan><tspan class="cls-10" x="93.49" y="0">v</tspan><tspan class="cls-5" x="115.86" y="0">a</tspan><tspan x="139.91" y="0">tions</tspan></text>
    </g>
  </g>
</svg>